<svg xmlns="http://www.w3.org/2000/svg" fill="none" viewBox="0 0 24 24"><title>adiclub-logo</title><path d="M3.348 10.787a2.087 2.087 0 0 0-1.22-.375 2.096 2.096 0 0 0-1.505.633A2.165 2.165 0 0 0 0 12.575c0 1.192.963 2.177 2.128 2.177.435.003.86-.127 1.22-.375v.278h1.004v-4.201H3.348v.333Zm-1.192 2.98a1.17 1.17 0 0 1-.834-.35 1.21 1.21 0 0 1 0-1.697 1.17 1.17 0 0 1 .834-.351c.314.003.615.13.838.356.222.225.35.53.354.85a1.2 1.2 0 0 1-1.192 1.192Zm5.897-2.98a2.046 2.046 0 0 0-1.207-.375 2.104 2.104 0 0 0-1.562.606 2.204 2.204 0 0 0 0 3.13 2.104 2.104 0 0 0 1.563.605 2.153 2.153 0 0 0 1.206-.375v.277h1.015V9.026H8.053v1.761Zm-1.177 2.98c-.651 0-1.193-.54-1.193-1.192a1.23 1.23 0 0 1 .355-.85c.223-.226.523-.354.838-.357.637 0 1.18.554 1.18 1.206a1.22 1.22 0 0 1-.351.841 1.18 1.18 0 0 1-.83.352Zm2.698-3.313h1.018v4.2h-1.02l.002-4.2Zm1.017-.388H9.57v-1.04h1.017l.003 1.04Zm3.38 3.403.07.045c-.179.395-.417.695-.713.9-.282.202-.62.31-.965.31a1.494 1.494 0 0 1-.726-.168 1.151 1.151 0 0 1-.48-.491 1.644 1.644 0 0 1-.172-.774 3.313 3.313 0 0 1 .183-1.113c.115-.332.287-.64.51-.91a2.5 2.5 0 0 1 .747-.62 1.88 1.88 0 0 1 .9-.226 1.485 1.485 0 0 1 1.175.53l-.644.58h-.026c-.075-.277-.171-.482-.287-.616a.553.553 0 0 0-.426-.199.692.692 0 0 0-.453.186c-.16.143-.292.314-.391.505a3.309 3.309 0 0 0-.382 1.557c0 .347.078.623.235.827a.75.75 0 0 0 .617.305c.225.003.447-.049.648-.15.22-.122.417-.283.579-.477h.002Zm1.316.08a2.354 2.354 0 0 0-.022.442c.008.101.059.15.152.15a.21.21 0 0 0 .095-.026.316.316 0 0 0 .088-.062l.052.036c-.07.178-.177.34-.313.473a.67.67 0 0 1-.478.182c-.197 0-.34-.073-.427-.217-.087-.144-.104-.39-.052-.739l.59-3.824-.165-.583.009-.053L15.946 9l.044.026-.704 4.523Zm4.164 0a2.345 2.345 0 0 0-.022.442c.009.101.06.15.152.15a.211.211 0 0 0 .096-.026.332.332 0 0 0 .087-.062l.052.036a1.37 1.37 0 0 1-.312.473.67.67 0 0 1-.479.182c-.197 0-.34-.073-.426-.217-.087-.144-.104-.39-.052-.739l.048-.312a3.727 3.727 0 0 1-.357.462c-.204.23-.44.428-.7.589a1.454 1.454 0 0 1-.765.233c-.226 0-.4-.074-.52-.22a1.145 1.145 0 0 1-.236-.576 2.519 2.519 0 0 1 .01-.752l.286-1.857-.165-.583.008-.053 1.131-.327.044.027-.417 2.697c-.052.343-.042.589.03.74a.36.36 0 0 0 .335.224.958.958 0 0 0 .461-.141 2.99 2.99 0 0 0 .51-.367c.14-.124.273-.258.395-.4l.279-1.816-.166-.583.01-.053 1.13-.327.044.027-.491 3.13Zm4.427-2.53a1.103 1.103 0 0 0-.339-.46.8.8 0 0 0-.504-.168 1.521 1.521 0 0 0-.709.195c-.262.14-.5.323-.705.54-.103.106-.2.22-.288.34l.378-2.437L21.67 9l-1.134.327-.009.053.165.583-.729 4.734.035.027.808-.3c.059.043.12.082.184.118.214.121.481.181.8.181.303.002.6-.079.861-.234.277-.165.517-.386.705-.65.21-.292.37-.618.474-.964.115-.38.172-.776.17-1.174a1.757 1.757 0 0 0-.122-.68v-.002Zm-.913 1.928c-.064.26-.159.511-.283.747a1.86 1.86 0 0 1-.4.527.677.677 0 0 1-.488.195.67.67 0 0 1-.478-.218 1.58 1.58 0 0 1-.324-.546l.283-1.823a3.46 3.46 0 0 1 .563-.484c.27-.182.5-.274.692-.274a.428.428 0 0 1 .409.248c.086.165.13.422.13.77 0 .29-.034.577-.104.858" fill="currentColor" /></svg>