<svg xmlns="http://www.w3.org/2000/svg" fill="none" viewBox="0 0 24 24"><title>apple</title><g clip-path="url(#a)"><path d="M20.425 8.5c-.128.1-2.392 1.37-2.392 4.192 0 3.265 2.88 4.42 2.967 4.449-.013.07-.458 1.582-1.519 3.122-.946 1.355-1.934 2.708-3.438 2.708-1.503 0-1.89-.869-3.626-.869-1.691 0-2.293.898-3.668.898s-2.335-1.254-3.438-2.794C4.033 18.397 3 15.588 3 12.92c0-4.277 2.795-6.546 5.545-6.546 1.462 0 2.68.955 3.598.955.873 0 2.235-1.012 3.898-1.012.63 0 2.894.057 4.384 2.183Zm-5.174-3.993c.688-.812 1.175-1.938 1.175-3.065A2.098 2.098 0 0 0 16.383 1c-1.12.042-2.45.741-3.253 1.668-.63.713-1.218 1.84-1.218 2.981 0 .134.015.267.042.398.099.019.2.028.3.029 1.004 0 2.267-.669 2.996-1.569Z" fill="#000" /></g><defs><clipPath id="a"><path fill="#fff" transform="translate(3 1)" d="M0 0h18v22H0z" /></clipPath></defs></svg>