<svg xmlns="http://www.w3.org/2000/svg" viewBox="0 0 19 19"><title>customization</title><path d="M12.504.717 2.424 12.219l1.785 1.566L14.291 2.281ZM1.65 13.109l-.462 2.329 2.244-.76Z" fill="currentColor" /><path d="m8.598 10.592-4.56 5.214a8.313 8.313 0 0 0 5.046 2.16z" fill="#3175de" /><path d="m17.943 9.132-7.339.487 5.712 5.011a8.313 8.313 0 0 0 1.627-5.463z" fill="#f9b900" /><path d="m9.785 10.486.499 7.469a8.313 8.313 0 0 0 5.26-2.375z" fill="#00ac37" /><path d="M17.813 7.956a8.313 8.313 0 0 0-2.791-4.655l-4.536 5.13z" fill="#ea2c35" /></svg>