<svg xmlns="http://www.w3.org/2000/svg" fill="none" viewBox="0 0 24 24"><title>hd-outline</title><path fill-rule="evenodd" clip-rule="evenodd" d="M2 4h20v16H2V4ZM0 22V2h24v20H0Zm9.06-9.185V17h1.851V7H9.06v4.087H5.85V7H4v10h1.85v-4.185h3.21Zm10.927.323a44.552 44.552 0 0 0 0-2.262 9.502 9.502 0 0 0-.067-.94 3.367 3.367 0 0 0-.186-.787 2.87 2.87 0 0 0-.333-.688c-.338-.506-.737-.876-1.199-1.11C17.741 7.117 17.186 7 16.538 7h-3.422v10h3.422c.648 0 1.203-.117 1.664-.351.462-.234.861-.604 1.199-1.11.142-.215.253-.44.333-.674a3.61 3.61 0 0 0 .186-.786c.036-.29.058-.604.067-.941Zm-1.851-2.15c.009.282.013.619.013 1.012s-.004.735-.013 1.025c-.01.281-.027.525-.053.73a2.313 2.313 0 0 1-.12.506c-.045.14-.111.267-.2.38-.31.411-.772.617-1.385.617h-1.411V8.742h1.411c.613 0 1.074.206 1.385.618.089.112.155.238.2.379.053.14.093.313.12.52.026.196.044.44.053.73Z" fill="currentColor" /></svg>