<svg xmlns="http://www.w3.org/2000/svg" viewBox="0 0 24 24"><title>messenger</title><g fill="none" fill-rule="evenodd"><path d="M10.934.022C4.774.022 0 4.534 0 10.628c0 3.188 1.307 5.942 3.434 7.845a.88.88 0 0 1 .295.623l.06 1.945a.876.876 0 0 0 1.227.774l2.17-.957a.873.873 0 0 1 .582-.044 11.9 11.9 0 0 0 3.166.42c6.16 0 10.934-4.512 10.934-10.606S17.094.022 10.934.022Z" fill="currentColor" transform="translate(1 1)" /><path d="m4.37 13.73 3.21-5.095a1.642 1.642 0 0 1 2.372-.438l2.554 1.916a.657.657 0 0 0 .79-.002l3.45-2.618c.46-.35 1.062.203.752.691l-3.21 5.093a1.642 1.642 0 0 1-2.372.438l-2.554-1.916a.657.657 0 0 0-.79.002l-3.451 2.62c-.46.35-1.063-.202-.753-.69" fill="#fff" transform="translate(1 1)" /></g></svg>