<svg xmlns="http://www.w3.org/2000/svg" viewBox="0 0 24 24"><title>pinterest</title><circle cx="12" cy="12" r="11" fill="#fff" /><path d="M12 1a11 11 0 0 0-4 21.25 10.83 10.83 0 0 1 0-3.16c.2-.86 1.29-5.47 1.29-5.47A4 4 0 0 1 9 12c0-1.53.89-2.67 2-2.67a1.37 1.37 0 0 1 1.39 1.54 22.13 22.13 0 0 1-.91 3.67 1.6 1.6 0 0 0 1.63 2c2 0 3.46-2.07 3.46-5A4.34 4.34 0 0 0 12 7a4.76 4.76 0 0 0-5 4.78 4.25 4.25 0 0 0 .82 2.51.31.31 0 0 1 .07.31c-.08.35-.27 1.1-.3 1.25s-.16.24-.37.15C5.83 15.36 5 13.35 5 11.74c0-3.47 2.5-6.66 7.24-6.66A6.45 6.45 0 0 1 19 11.43c0 3.79-2.39 6.84-5.7 6.84A2.93 2.93 0 0 1 10.8 17s-.56 2.1-.69 2.62a12.37 12.37 0 0 1-1.37 2.88A11 11 0 1 0 12 1z" fill="currentColor" /></svg>