<svg xmlns="http://www.w3.org/2000/svg" viewBox="0 0 24 24"><title>runtastic</title><path d="M11.971 2a4.28 4.28 0 0 0-3.24 1.34L5.23 7l1.558 1.67 3.452-3.58a2.25 2.25 0 0 1 3.298 0l.112.11 1.58-1.6-.23-.21A4.28 4.28 0 0 0 11.97 2zm4.93 3.33-1.67 1.55 3.58 3.44a2.25 2.25 0 0 1 0 3.29l-.16.15 1.638 1.57.25-.22a4.27 4.27 0 0 0 0-6.26l-3.638-3.52zM3.5 8.67l-.19.18a4.31 4.31 0 0 0-.06 6.32l3.63 3.5 1.69-1.57L5 13.69a2.27 2.27 0 0 1 0-3.33l.11-.1L3.5 8.67zM17 15.33l-3.4 3.56a2.24 2.24 0 0 1-3.3 0l-.16-.18-1.57 1.62.24.27a4.27 4.27 0 0 0 6.27 0l3.49-3.6L17 15.33z" fill="currentColor" /></svg>