<svg xmlns="http://www.w3.org/2000/svg" fill="none" viewBox="0 0 24 24"><title>sd-filled</title><path fill-rule="evenodd" clip-rule="evenodd" d="M24 2H0v20h24V2ZM10.882 15.287c.182-.368.273-.792.273-1.27 0-.442-.06-.838-.178-1.188a2.064 2.064 0 0 0-.573-.884 2.238 2.238 0 0 0-.751-.498 4.73 4.73 0 0 0-1.106-.276l-1.16-.18a1.953 1.953 0 0 1-.533-.137 1.406 1.406 0 0 1-.355-.235.951.951 0 0 1-.219-.332 1.275 1.275 0 0 1-.054-.373c0-.34.118-.63.355-.87.245-.248.623-.373 1.133-.373.319 0 .655.042 1.01.125.355.073.683.257.983.552l1.202-1.202a3.683 3.683 0 0 0-1.38-.884C9.03 7.088 8.443 7 7.77 7c-.529 0-1.002.074-1.42.221a3.053 3.053 0 0 0-1.066.622c-.29.257-.514.57-.669.939a3.02 3.02 0 0 0-.232 1.201c0 .838.232 1.483.697 1.934.218.212.478.387.778.525.3.129.669.226 1.106.29l1.16.18c.246.036.428.078.547.124.118.046.227.115.327.207.2.203.3.474.3.815 0 .396-.145.7-.436.912-.292.211-.724.317-1.297.317a4.4 4.4 0 0 1-1.27-.18 2.48 2.48 0 0 1-1.065-.648L4 15.702c.473.488.997.828 1.57 1.022.583.184 1.243.276 1.98.276.51 0 .983-.064 1.42-.193a3.551 3.551 0 0 0 1.147-.58 2.71 2.71 0 0 0 .765-.94Zm9.104-2.168a42.121 42.121 0 0 0 0-2.224 9.03 9.03 0 0 0-.068-.925 3.202 3.202 0 0 0-.191-.774 2.776 2.776 0 0 0-.341-.677c-.346-.497-.756-.86-1.23-1.09-.473-.231-1.041-.346-1.706-.346h-3.51v9.834h3.51c.665 0 1.233-.115 1.707-.345.473-.23.883-.594 1.229-1.091a2.86 2.86 0 0 0 .34-.663c.092-.24.156-.498.192-.774.037-.285.06-.594.068-.925Zm-1.898-2.114c.01.277.014.608.014.995s-.005.723-.014 1.008a7.34 7.34 0 0 1-.054.719 2.16 2.16 0 0 1-.123.497 1.143 1.143 0 0 1-.205.373c-.319.405-.792.607-1.42.607H14.84V8.796h1.447c.628 0 1.101.202 1.42.607.091.11.16.235.205.373.055.138.095.309.123.511.027.194.045.433.054.718Z" fill="currentColor" /></svg>