<svg xmlns="http://www.w3.org/2000/svg" fill="none" viewBox="0 0 24 24"><title>subtitles-cc-filled</title><path fill-rule="evenodd" clip-rule="evenodd" d="M24 2H0v20h24V2ZM10.107 16.227c.668-.525 1.096-1.303 1.284-2.335H9.402a2.108 2.108 0 0 1-.564 1.009c-.263.257-.64.386-1.128.386-.273 0-.518-.046-.734-.138a1.527 1.527 0 0 1-.522-.373 1.514 1.514 0 0 1-.24-.345 2.317 2.317 0 0 1-.14-.497 6.46 6.46 0 0 1-.085-.76A20.183 20.183 0 0 1 5.96 12c0-.47.009-.856.028-1.16.019-.313.047-.571.084-.774.038-.202.085-.368.141-.497.066-.129.146-.244.24-.345a1.52 1.52 0 0 1 .522-.373c.216-.092.46-.138.734-.138.489 0 .865.133 1.128.4.263.258.447.59.55.995h2.003c-.188-1.032-.616-1.805-1.284-2.32C9.45 7.261 8.65 7 7.71 7c-.583 0-1.091.092-1.524.276a3.693 3.693 0 0 0-1.17.76 3.155 3.155 0 0 0-.593.773 3.64 3.64 0 0 0-.296.884 8.15 8.15 0 0 0-.113 1.036 53.478 53.478 0 0 0 0 2.541c.019.378.056.728.113 1.05.066.313.165.604.296.87.141.268.339.526.593.774.348.332.738.59 1.17.774.433.175.94.262 1.524.262.94 0 1.74-.258 2.397-.773Zm8.61 0c.667-.525 1.095-1.303 1.283-2.335h-1.989a2.108 2.108 0 0 1-.564 1.009c-.263.257-.64.386-1.128.386-.273 0-.518-.046-.734-.138a1.528 1.528 0 0 1-.522-.373 1.514 1.514 0 0 1-.24-.345 2.317 2.317 0 0 1-.14-.497 6.46 6.46 0 0 1-.085-.76A20.183 20.183 0 0 1 14.57 12c0-.47.009-.856.028-1.16.019-.313.047-.571.084-.774.038-.202.085-.368.141-.497.066-.129.146-.244.24-.345a1.52 1.52 0 0 1 .522-.373c.216-.092.46-.138.734-.138.489 0 .865.133 1.128.4.263.258.447.59.55.995H20c-.188-1.032-.616-1.805-1.284-2.32C18.058 7.261 17.26 7 16.32 7c-.583 0-1.091.092-1.524.276a3.693 3.693 0 0 0-1.17.76 3.155 3.155 0 0 0-.593.773 3.64 3.64 0 0 0-.296.884 8.15 8.15 0 0 0-.113 1.036 53.478 53.478 0 0 0 0 2.541c.019.378.057.728.113 1.05.066.313.164.604.296.87.141.268.339.526.593.774.348.332.738.59 1.17.774.433.175.94.262 1.524.262.94 0 1.74-.258 2.397-.773Z" fill="currentColor" /></svg>