<svg xmlns="http://www.w3.org/2000/svg" viewBox="0 0 24 24"><title>tiktok-default</title><defs><path id="a" d="M0 0h24v16.911H0z" /></defs><g fill="none" fill-rule="evenodd"><path d="M0 24h24V0H0z" /><path fill="#FFF" d="m9.545 12.024 6.273-3.568-6.273-3.57z" transform="translate(0 3.545)" /><g fill-rule="nonzero"><path d="m.773 18.83.145.202a2.651 2.651 0 0 1-.145-.202Zm2.935-4.617c.131-1.096.574-1.708 1.406-2.338 1.194-.85 2.682-.37 2.682-.37V8.65c.361-.009.723.013 1.08.066v3.675s-1.487-.48-2.681.37c-.832.63-1.275 1.241-1.406 2.337-.005.594.104 1.374.61 2.043a5.11 5.11 0 0 1-.384-.225c-1.108-.757-1.312-1.897-1.307-2.702ZM15.03 3.367c-.819-.91-1.13-1.835-1.244-2.482h1.031s-.203 1.699 1.293 3.367l.023.022a5.702 5.702 0 0 1-1.103-.907ZM20 5.955v3.6s-1.316-.052-2.293-.303c-1.36-.352-2.233-.893-2.233-.893s-.606-.388-.651-.414v7.438a7.36 7.36 0 0 1-.453 2.311c-.443 1.127-1.13 1.87-1.257 2.02 0 0-.836 1.004-2.306 1.677-1.325.608-2.491.595-2.84.608 0 0-2.012.08-3.825-1.114a7.55 7.55 0 0 1-1.094-.893l.009.009c1.813 1.197 3.825 1.113 3.825 1.113.348-.013 1.515 0 2.84-.607 1.47-.674 2.306-1.677 2.306-1.677.127-.15.814-.894 1.257-2.02.34-.863.452-1.898.452-2.311V7.064c.05.027.651.414.651.414s.873.542 2.234.894c.977.25 2.293.303 2.293.303v-2.82c.452.1.836.127 1.085.1Z" fill="#EE1D52" transform="translate(2 1)" /><path d="M18.915 5.85v2.82s-1.316-.053-2.293-.304c-1.36-.352-2.234-.893-2.234-.893s-.605-.388-.65-.414V14.5c0 .413-.114 1.448-.453 2.31-.443 1.127-1.13 1.871-1.257 2.02 0 0-.836 1.004-2.306 1.678-1.325.607-2.492.594-2.84.607 0 0-2.012.08-3.825-1.113l-.01-.01a7.329 7.329 0 0 1-.537-.593c-.58-.718-.932-1.563-1.022-1.805v-.004c-.145-.419-.443-1.43-.403-2.404.073-1.72.67-2.781.828-3.046a7.23 7.23 0 0 1 1.605-1.91 6.778 6.778 0 0 1 1.908-1.1 6.52 6.52 0 0 1 2.37-.484V11.5s-1.488-.48-2.682.37c-.832.63-1.275 1.241-1.406 2.337-.005.806.199 1.946 1.311 2.707.131.084.258.159.385.225.194.255.43.48.7.664 1.09.7 2 .749 3.166.295.777-.304 1.36-.986 1.632-1.747.172-.476.167-.951.167-1.444V.885h2.714c.113.647.42 1.571 1.243 2.482.33.344.7.652 1.103.907.118.128.728.744 1.515 1.127.403.198.832.347 1.27.449Z" fill="#000" transform="translate(2 1)" /><g fill="#69C9D0"><path d="m.407 16.721.145.19a1.682 1.682 0 0 1-.145-.19Z" transform="translate(2 1)" /><path d="M5.426 9.133a6.716 6.716 0 0 0-1.908 1.1 7.165 7.165 0 0 0-1.605 1.915c-.159.264-.755 1.32-.828 3.046-.04.977.263 1.985.403 2.403v.005c.09.237.443 1.087 1.022 1.804.167.207.348.405.538.595a7.539 7.539 0 0 1-1.624-1.48 6.994 6.994 0 0 1-1.017-1.795v-.009c-.145-.418-.448-1.43-.402-2.408.072-1.72.669-2.781.827-3.045a7.165 7.165 0 0 1 1.605-1.915 6.778 6.778 0 0 1 1.908-1.1 6.82 6.82 0 0 1 1.348-.388 6.903 6.903 0 0 1 2.107-.03v.818a6.525 6.525 0 0 0-2.374.484Z" transform="translate(2 1)" /><path d="M13.787.885h-2.713v14.023c0 .493 0 .968-.167 1.444-.276.757-.86 1.443-1.633 1.747-1.166.458-2.08.405-3.165-.295a2.904 2.904 0 0 1-.7-.66c.926.48 1.754.471 2.78.07.778-.303 1.361-.99 1.632-1.747.172-.475.168-.95.168-1.444V0h3.748c-.004 0-.045.348.05.885Zm5.128 4.186v.779a5.876 5.876 0 0 1-1.27-.45c-.783-.378-1.394-.998-1.516-1.126.14.088.28.167.43.242.959.462 1.895.603 2.356.555Z" transform="translate(2 1)" /></g></g></g></svg>