<svg xmlns="http://www.w3.org/2000/svg" viewBox="0 0 24 24"><title>twitter</title><g fill="none" fill-rule="evenodd"><path d="M0 24h24V0H0z" /><path d="M23 12c0 6.075-4.925 11-11 11S1 18.075 1 12 5.925 1 12 1s11 4.925 11 11" fill="#1DA1F2" /><path d="M10.088 18c4.906 0 7.59-4.232 7.59-7.9 0-.121-.003-.24-.009-.36.521-.392.974-.88 1.331-1.438a5.16 5.16 0 0 1-1.532.437 2.77 2.77 0 0 0 1.173-1.536 5.219 5.219 0 0 1-1.693.674A2.617 2.617 0 0 0 15 7c-1.473 0-2.668 1.244-2.668 2.777 0 .218.024.43.07.633-2.217-.116-4.183-1.221-5.498-2.901-.23.41-.361.887-.361 1.395 0 .964.47 1.814 1.186 2.312a2.568 2.568 0 0 1-1.208-.348v.036c0 1.345.92 2.468 2.14 2.722a2.577 2.577 0 0 1-1.205.048c.34 1.103 1.324 1.906 2.492 1.928A5.219 5.219 0 0 1 6 16.752 7.336 7.336 0 0 0 10.088 18" fill="#FFF" /></g></svg>