<svg xmlns="http://www.w3.org/2000/svg" viewBox="0 0 24 24"><title>usp-delivery-cash</title><g fill="none" fill-rule="evenodd"><path d="m15.235 4.5-1.312 3h-3.846l-1.312-3h6.47Z" stroke="currentColor" /><path d="M12.002 18.5c2.279 0 4.575-.565 5.861-1.76.364-.34.57-.763.623-1.269.059-.567-.067-1.227-.356-1.98-.617-1.609-1.967-3.602-4.034-5.991h-4.2c-2.06 2.395-3.407 4.392-4.024 6-.29.754-.416 1.413-.359 1.98.051.503.255.924.615 1.26 1.281 1.19 3.586 1.76 5.874 1.76Z" stroke="currentColor" /><path d="M12 15.57v-.68a2 2 0 0 1-1-.299l.16-.46c.295.199.644.303 1 .299a.71.71 0 0 0 .795-.613.548.548 0 0 0 .005-.057c0-.37-.26-.6-.76-.81-.7-.27-1.12-.58-1.12-1.17a1.12 1.12 0 0 1 1-1.1V10h.42v.66c.312.002.617.081.89.23l-.17.45a1.688 1.688 0 0 0-.86-.23c-.52 0-.72.31-.72.59 0 .28.25.53.84.77s1 .64 1 1.24a1.18 1.18 0 0 1-1.07 1.16v.7H12Z" fill="currentColor" /><path d="M12 15.57v-.68a2 2 0 0 1-1-.299l.16-.46c.295.199.644.303 1 .299a.71.71 0 0 0 .795-.613.548.548 0 0 0 .005-.057c0-.37-.26-.6-.76-.81-.7-.27-1.12-.58-1.12-1.17a1.12 1.12 0 0 1 1-1.1V10h.42v.66c.312.002.617.081.89.23l-.17.45a1.688 1.688 0 0 0-.86-.23c-.52 0-.72.31-.72.59 0 .28.25.53.84.77s1 .64 1 1.24a1.18 1.18 0 0 1-1.07 1.16v.7H12Z" stroke="currentColor" stroke-width=".37" /></g></svg>