<svg xmlns="http://www.w3.org/2000/svg" viewBox="0 0 24 24"><title>usp-klarna</title><g fill="none" fill-rule="evenodd"><path d="M9.327 1.182H6.718a6.67 6.67 0 0 1-2.69 5.39l-1.037.774L7 12.8h3.282L6.6 7.773a9.243 9.243 0 0 0 2.727-6.591M0 12.79h2.673V1.183H0zm12.136-2.854a1.5 1.5 0 1 0 .01 0h-.01Z" fill="currentColor" transform="translate(6 5)" /><path d="M11.227 2.28a.587.587 0 0 0 .591-.59.588.588 0 0 0-.59-.59.588.588 0 0 0-.592.59c0 .328.263.59.591.59Zm0-1.071c.263 0 .482.218.482.481a.486.486 0 0 1-.482.482.486.486 0 0 1-.481-.482c0-.263.219-.481.481-.481Zm-.087.547h.11l.109.24h.11l-.11-.24c.065-.022.11-.088.11-.175 0-.11-.089-.197-.22-.197h-.219v.612h.11v-.24Zm0-.285h.11c.065 0 .109.044.109.088 0 .065-.022.087-.11.087h-.11v-.175Z" fill="#000" transform="translate(6 5)" /></g></svg>