<svg xmlns="http://www.w3.org/2000/svg" fill="none" viewBox="0 0 24 24"><title>usp-delivery-same-day</title><path d="M5 14.469h2m-3-2h3m0-2H3" stroke="currentColor" stroke-linecap="square" /><path d="M8.568 17c.374.365.788.688 1.236.962 3.302 2.025 7.626.996 9.656-2.296a6.987 6.987 0 0 0-2.305-9.628A7.03 7.03 0 0 0 7.72 8" stroke="currentColor" /><path fill-rule="evenodd" clip-rule="evenodd" d="M14.72 12.868a1.24 1.24 0 0 1-1.077.797 1.14 1.14 0 0 1-1.143-1.14v-.045c.014-.488.326-.917.787-1.077V8h.753v3.382c.326.14.58.409.701.743h1.797v.743H14.72Z" fill="currentColor" /></svg>