<svg xmlns="http://www.w3.org/2000/svg" viewBox="0 0 24 24"><title>usp-sale</title><g fill="none" fill-rule="evenodd"><path d="m14.657 5.65 2.14 1.987L18.5 6.482V18.5h-13V6.482l1.702 1.155L9.343 5.65 12 7.623l2.657-1.974Z" stroke="currentColor" /><path d="M6.13 3.54a1.761 1.761 0 1 0 0 3.522 1.761 1.761 0 0 0 0-3.523Zm0 1a.76.76 0 1 1 0 1.52.76.76 0 0 1 0-1.52ZM1.76 0a1.76 1.76 0 1 0 0 3.52 1.76 1.76 0 0 0 0-3.52Zm0 1.001a.76.76 0 1 1 0 1.519.76.76 0 0 1 0-1.519ZM6.37.084l.76.652-5.36 6.25-.76-.652z" transform="translate(8 9)" fill="currentColor" fill-rule="nonzero" /></g></svg>