<svg xmlns="http://www.w3.org/2000/svg" viewBox="0 0 24 24"><title>vk</title><g fill="none" fill-rule="evenodd"><path d="M7.623 0h6.754C20.54 0 22 1.46 22 7.623v6.754C22 20.54 20.54 22 14.377 22H7.623C1.46 22 0 20.54 0 14.377V7.623C0 1.46 1.46 0 7.623 0" fill="#4680C2" transform="translate(1 1)" /><path d="M18.647 7.625c.111-.353 0-.609-.493-.609h-1.636c-.413 0-.603.224-.715.464 0 0-.842 2.05-2.017 3.38-.381.384-.556.512-.763.512-.111 0-.254-.128-.254-.48V7.608c0-.417-.127-.609-.476-.609H9.719a.396.396 0 0 0-.413.384c0 .4.588.497.651 1.618v2.434c0 .528-.095.624-.302.624-.556 0-1.906-2.065-2.716-4.42C6.78 7.177 6.62 7 6.209 7H4.555C4.079 7 4 7.224 4 7.464c0 .433.556 2.61 2.59 5.493 1.35 1.97 3.272 3.027 5.004 3.027 1.048 0 1.175-.24 1.175-.64v-1.49c0-.48.095-.56.429-.56.238 0 .667.128 1.636 1.073C15.946 15.487 16.137 16 16.757 16h1.636c.476 0 .699-.24.572-.705-.143-.464-.684-1.137-1.382-1.937-.382-.449-.954-.945-1.128-1.186-.239-.32-.175-.448 0-.736-.016 0 1.985-2.85 2.192-3.811" fill="#FFF" transform="translate(1 1)" /></g></svg>