<svg xmlns="http://www.w3.org/2000/svg" viewBox="0 0 24 24"><title>whatsapp</title><path d="m1.05 23 1.55-5.65a10.9 10.9 0 1 1 9.45 5.46 10.88 10.88 0 0 1-5.21-1.33z" fill="currentColor" /><path d="M12.05 21a9.08 9.08 0 1 0-7.68-4.25l.22.35-.92 3.34 3.43-.9.33.2A9.1 9.1 0 0 0 12 21z" fill="#fff" /><path d="M17.54 14.5c-.07-.11-.25-.18-.52-.32s-1.62-.79-1.87-.88-.43-.14-.61.13a13.32 13.32 0 0 1-.86 1.07c-.16.18-.32.21-.59.07a7.48 7.48 0 0 1-2.19-1.35 8.3 8.3 0 0 1-1.52-1.89c-.16-.27 0-.42.12-.55s.28-.32.41-.48a1.64 1.64 0 0 0 .27-.46.48.48 0 0 0 0-.47c-.07-.14-.61-1.48-.84-2s-.44-.46-.61-.46h-.54a1 1 0 0 0-.73.34 3 3 0 0 0-1 2.27 5.28 5.28 0 0 0 1.16 2.78 12.11 12.11 0 0 0 4.65 4.11 14.78 14.78 0 0 0 1.55.57 3.73 3.73 0 0 0 1.72.11 2.84 2.84 0 0 0 1.84-1.29 2.25 2.25 0 0 0 .16-1.3z" fill="currentColor" /></svg>