<svg xmlns="http://www.w3.org/2000/svg" viewBox="0 0 24 24"><title>yahoo</title><path d="m17.12 3.374-.132.21c-.124.197-.236.366-.391.6-.208.31-.595.924-1.06 1.713l-.452.764c-.313.527-.668 1.124-.944 1.6l-.352.613a539.98 539.98 0 0 0-1.864 3.267v.546c0 .757.016 1.58.045 2.318.014.335.027.933.041 1.565.018.753.035 1.531.054 1.925l.006.118v.015l-.127-.036c-.05-.015-.1-.027-.152-.04a4.418 4.418 0 0 0-.487-.075 3.822 3.822 0 0 0-.305-.012h-.003c-.103 0-.204.004-.305.012a4.418 4.418 0 0 0-.487.075 2.585 2.585 0 0 0-.152.04l-.128.036.001-.015.006-.118c.019-.393.037-1.171.054-1.925.014-.632.028-1.23.041-1.565.029-.737.045-1.56.045-2.318v-.546L9.138 10.5c-.304-.536-.622-1.09-.93-1.625l-.352-.613a149.81 149.81 0 0 0-.944-1.6l-.452-.764A38.257 38.257 0 0 0 5.4 4.184a26.954 26.954 0 0 1-.391-.6l-.132-.21-.001-.001.24.068c.307.088.62.131.955.131.335 0 .657-.043.957-.128l.073-.02.036.066c.594 1.072 2.188 3.692 3.14 5.258.33.54.59.967.719 1.184l.001-.002.002.002c.129-.217.39-.645.718-1.184.952-1.566 2.547-4.186 3.14-5.258l.037-.066.072.02c.3.085.622.128.957.128.336 0 .648-.043.955-.13l.24-.07.003.002Zm-6.092-1.878C7.14 1.496 3.466.986 0 0v22c3.466-.985 7.14-1.496 11.028-1.496 3.842 0 7.505.5 10.972 1.496V0c-3.467.997-7.13 1.496-10.972 1.496Z" transform="matrix(-1 0 0 1 23 1)" fill="#400090" fill-rule="evenodd" /></svg>